<svg width="24" height="24" viewBox="0 0 24 24" fill="none" xmlns="http://www.w3.org/2000/svg">
<path fill-rule="evenodd" clip-rule="evenodd" d="M19.4 10.2665L20.7333 11.4665C21 11.6998 21.0333 12.1331 20.7666 12.4331C20.5333 12.6998 20.1 12.6998 19.8333 12.4665L19.4 12.0665V18.5998C19.4 19.3331 18.8 19.9331 18.0666 19.9331H14.5333C13.8 19.9331 13.2 19.3331 13.2 18.5998V14.6665H10.8333V18.5665C10.8333 19.2998 10.2333 19.8998 9.49997 19.8998H5.96664C5.23331 19.8998 4.63331 19.2998 4.63331 18.5665V11.9998L4.16664 12.4331C3.89997 12.6998 3.49997 12.6665 3.23331 12.3998C2.96664 12.1331 2.99997 11.6998 3.26664 11.4665L11.1 4.3998C11.6333 3.93314 12.4 3.93314 12.9 4.3998L17.4 8.46647V6.26647H19.4V10.2665ZM14.5 14.6665V18.6331H18.0666L18.0333 10.8331L12 5.39981L5.96664 10.8331V18.5998H9.49997V14.6665C9.49997 13.9331 10.1 13.3331 10.8333 13.3331H13.1666C13.9 13.3331 14.5 13.9331 14.5 14.6665ZM10.1999 10.6665C10.1999 9.66652 10.9999 8.86652 11.9999 8.86652C12.9999 8.86652 13.7999 9.66652 13.7999 10.6665H10.1999Z" fill="white"/>
</svg>
