<svg xmlns="http://www.w3.org/2000/svg" width="24" height="24" fill="none" viewBox="0 0 24 24"><path fill="#fff" fill-rule="evenodd" d="M10.32 4.084A2.36 2.36 0 0 1 12 3.378c.632 0 1.237.255 1.68.706.417.423.66.985.69 1.576a5.9 5.9 0 0 1 2.428 2.016 6 6 0 0 1 1.074 3.435v2.807a1.2 1.2 0 0 0 .342.841l1.23 1.249A.622.622 0 0 1 19 17.067h-3.753v.266c0 .87-.34 1.705-.947 2.323a3.23 3.23 0 0 1-2.3.966 3.23 3.23 0 0 1-2.3-.966 3.3 3.3 0 0 1-.947-2.323v-.266H5a.622.622 0 0 1-.443-1.06l1.229-1.248c.218-.221.342-.524.342-.84v-2.808a5.96 5.96 0 0 1 3.503-5.45 2.4 2.4 0 0 1 .688-1.577Zm-.323 12.983v.266c0 .546.087.784.463 1.167m-.463-1.433H14c0 .545-.21 1.333-.587 1.715a1.98 1.98 0 0 1-1.413.596c-.528 0-1.163-.496-1.54-.878M12 4.622c-.296 0-.582.12-.794.335a1.17 1.17 0 0 0-.334.82v.304a.62.62 0 0 1-.412.585c-1.794.645-3.088 2.39-3.088 4.445v2.808c0 .64-.25 1.257-.7 1.713l-.186.19h11.028l-.187-.19a2.43 2.43 0 0 1-.7-1.714v-2.807a4.77 4.77 0 0 0-.851-2.725 4.64 4.64 0 0 0-2.236-1.72.62.62 0 0 1-.412-.585v-.303c0-.31-.121-.605-.334-.82A1.1 1.1 0 0 0 12 4.621Z" clip-rule="evenodd"></path></svg>