<svg xmlns="http://www.w3.org/2000/svg" width="24" height="24" fill="none" viewBox="0 0 24 24"><path fill="#fff" d="M11.38 14a.62.62 0 0 0 1.24 0zm1.24-4a.62.62 0 0 0-1.24 0zM10 11.38a.62.62 0 0 0 0 1.24zm4 1.24a.62.62 0 0 0 0-1.24zm-4.4 8h4.8v-1.24H9.6zm4.8 0c2.061 0 3.665-.408 4.738-1.482 1.074-1.073 1.482-2.677 1.482-4.738h-1.24c0 1.939-.392 3.135-1.118 3.862-.727.726-1.923 1.118-3.862 1.118zm6.22-6.22V9.6h-1.24v4.8zm0-4.8c0-2.061-.408-3.665-1.482-4.738C18.065 3.788 16.461 3.38 14.4 3.38v1.24c1.939 0 3.135.392 3.862 1.118.726.727 1.118 1.923 1.118 3.862zM14.4 3.38H9.6v1.24h4.8zm-4.8 0c-2.061 0-3.665.408-4.738 1.482C3.788 5.935 3.38 7.539 3.38 9.6h1.24c0-1.939.392-3.135 1.118-3.862C6.465 5.012 7.661 4.62 9.6 4.62zM3.38 9.6v4.8h1.24V9.6zm0 4.8c0 2.061.408 3.665 1.482 4.738C5.935 20.212 7.539 20.62 9.6 20.62v-1.24c-1.939 0-3.135-.392-3.862-1.118-.726-.727-1.118-1.923-1.118-3.862zm9.24-.4v-4h-1.24v4zM10 12.62h4v-1.24h-4z"></path></svg>